<svg width="9" height="16" viewBox="0 0 9 16" fill="none" xmlns="http://www.w3.org/2000/svg">
<path d="M0.329263 15.119C0.118358 14.9016 -0.000122106 14.6068 -0.000122119 14.2994C-0.000122133 13.9919 0.118358 13.6971 0.329263 13.4797L5.89801 7.74074L0.329262 2.00181C0.124334 1.78314 0.0109403 1.49028 0.0135035 1.18629C0.0160667 0.882309 0.134382 0.591521 0.342966 0.376562C0.55155 0.161603 0.833714 0.0396736 1.12869 0.0370321C1.42366 0.0343905 1.70783 0.151249 1.92001 0.36244L8.28414 6.92106C8.49504 7.13848 8.61352 7.43332 8.61352 7.74074C8.61352 8.04817 8.49504 8.34301 8.28414 8.56042L1.92001 15.119C1.70904 15.3364 1.42295 15.4585 1.12464 15.4585C0.826328 15.4585 0.540232 15.3364 0.329263 15.119Z" fill="#A8B2CC"/>
</svg>
