<svg width="9" height="16" viewBox="0 0 9 16" fill="none" xmlns="http://www.w3.org/2000/svg">
<path d="M8.2839 0.339446C8.4948 0.556858 8.61328 0.851694 8.61328 1.15912C8.61328 1.46654 8.4948 1.76137 8.2839 1.97878L2.71514 7.71763L8.2839 13.4565C8.48882 13.6751 8.60222 13.968 8.59965 14.272C8.59709 14.576 8.47878 14.8667 8.27019 15.0817C8.06161 15.2967 7.77944 15.4186 7.48447 15.4212C7.1895 15.4239 6.90532 15.307 6.69315 15.0958L0.329019 8.5373C0.118114 8.31989 -0.000365873 8.02505 -0.00036586 7.71763C-0.000365847 7.41021 0.118114 7.11537 0.329019 6.89796L6.69315 0.339446C6.90412 0.122099 7.19021 -6.41044e-08 7.48852 -5.06666e-08C7.78683 -3.72288e-08 8.07293 0.122099 8.2839 0.339446V0.339446Z" fill="#A8B2CC"/>
</svg>
